<?xml version="1.0" encoding="utf-8"?>
<!-- Generator: Adobe Illustrator 27.2.0, SVG Export Plug-In . SVG Version: 6.00 Build 0)  -->
<svg version="1.1" id="Layer_1" xmlns="http://www.w3.org/2000/svg" xmlns:xlink="http://www.w3.org/1999/xlink" x="0px" y="0px"
	 viewBox="0 0 60 60" style="enable-background:new 0 0 60 60;" xml:space="preserve">
<style type="text/css">
	.st0{fill:#262626;}
	.st1{fill:#FFCA05;}
</style>
<rect x="-0.53" y="-0.16" class="st0" width="60.91" height="60.55"/>
<g>
	<path class="st1" d="M29.83,40.71c-5.87-0.05-10.58-4.84-10.54-10.7s4.84-10.58,10.7-10.54s10.58,4.84,10.54,10.7
		c-0.01,1.43-0.31,2.79-0.83,4.03l4.26,4.33c1.46-2.43,2.32-5.27,2.34-8.32c0.07-9.06-7.21-16.45-16.27-16.53
		c-9.06-0.07-16.45,7.21-16.53,16.27c-0.07,9.06,7.21,16.45,16.27,16.53c3.17,0.02,6.13-0.85,8.65-2.39l-4.23-4.3
		C32.87,40.4,31.39,40.73,29.83,40.71"/>
	<path class="st1" d="M26.75,30.09c0,1.74,1.41,3.16,3.16,3.16s3.16-1.41,3.16-3.16s-1.41-3.16-3.16-3.16
		C28.17,26.94,26.75,28.35,26.75,30.09"/>
	<path class="st1" d="M45.51,41.81l-8.51-8.51c-1.08-1.08-2.83-1.08-3.91,0c-1.08,1.08-1.08,2.83,0,3.91l8.51,8.51
		c1.08,1.08,2.83,1.08,3.91,0C46.59,44.64,46.59,42.89,45.51,41.81"/>
</g>
</svg>
